<svg width="18" height="18" viewBox="0 0 18 18" fill="none" xmlns="http://www.w3.org/2000/svg">
<path d="M0.00012 0.75C0.00012 0.33579 0.33591 0 0.75012 0C1.16433 0 1.50012 0.33579 1.50012 0.75V7.0077L5.15084 5.08631C5.38062 4.96538 5.6566 4.9719 5.88041 5.10355L9.69982 7.3503L15.3001 3.15C15.5274 2.97955 15.8315 2.95214 16.0855 3.07918C16.3396 3.20622 16.5001 3.46592 16.5001 3.75V16.5H17.2501C17.6643 16.5 18.0001 16.8358 18.0001 17.25C18.0001 17.6642 17.6643 18 17.2501 18H0.75012C0.33591 18 0.00012 17.6642 0.00012 17.25V8.2641C-4e-05 8.2551 -4e-05 8.2461 0.00012 8.2371V0.75ZM1.50012 8.7028V16.5H15.0001V5.25L10.2001 8.85C9.95812 9.0315 9.63072 9.0499 9.36992 8.8965L5.47987 6.60821L1.50012 8.7028Z" fill="white"/>
</svg>
