<svg width="21" height="20" viewBox="0 0 21 20" fill="none" xmlns="http://www.w3.org/2000/svg">
<path d="M10.8 9.6C11.7544 9.6 12.5786 10.157 12.9654 10.9638L11.9981 11.9311C11.9623 11.3004 11.4396 10.8 10.8 10.8H2.4C1.73726 10.8 1.2 11.3372 1.2 12V13.8C1.2 15.4885 3.09434 16.8 6.6 16.8C7.3849 16.8 8.08902 16.7342 8.7092 16.6133L8.46654 17.584C8.44213 17.6815 8.42436 17.7786 8.41286 17.8748C7.85038 17.9569 7.24489 18 6.6 18C2.50566 18 0 16.2653 0 13.8V12C0 10.6745 1.07452 9.6 2.4 9.6H10.8ZM16.569 9.05731C17.4454 8.18089 18.8663 8.18089 19.7428 9.05731C20.6191 9.93372 20.6191 11.3546 19.7428 12.2311L13.9475 18.0264C13.6096 18.3643 13.1862 18.604 12.7226 18.7199L10.9252 19.1693C10.1435 19.3646 9.43537 18.6566 9.63084 17.875L10.0801 16.0775C10.196 15.6139 10.4358 15.1906 10.7736 14.8526L16.569 9.05731ZM15 8.4C15.2006 8.4 15.3967 8.3803 15.5864 8.34271C16.28 8.20525 16.8876 7.82868 17.3197 7.30248C17.7449 6.78475 18 6.12217 18 5.4C18 3.74315 16.6568 2.4 15 2.4C13.3432 2.4 12 3.74315 12 5.4C12 7.05685 13.3432 8.4 15 8.4ZM15 3.6C15.9941 3.6 16.8 4.40588 16.8 5.4C16.8 6.39412 15.9941 7.2 15 7.2C14.0059 7.2 13.2 6.39412 13.2 5.4C13.2 4.40588 14.0059 3.6 15 3.6ZM6.6 0C8.9196 0 10.8 1.8804 10.8 4.2C10.8 6.5196 8.9196 8.4 6.6 8.4C4.2804 8.4 2.4 6.5196 2.4 4.2C2.4 1.8804 4.2804 0 6.6 0ZM6.6 1.2C4.94315 1.2 3.6 2.54315 3.6 4.2C3.6 5.85685 4.94315 7.2 6.6 7.2C8.25685 7.2 9.6 5.85685 9.6 4.2C9.6 2.54315 8.25685 1.2 6.6 1.2Z" fill="white"/>
</svg>
