<svg width="17" height="18" viewBox="0 0 17 18" fill="none" xmlns="http://www.w3.org/2000/svg">
<path d="M16.3554 9.18732C16.207 9.42472 16.0104 9.62832 15.7784 9.78502L9.72854 13.8687C8.88334 14.4392 7.77634 14.4392 6.93114 13.8687L0.881256 9.78502C0.120266 9.27132 -0.174834 8.32572 0.102126 7.49542L6.94304 12.0549C7.73034 12.5798 8.74104 12.6126 9.55624 12.1533L9.71654 12.0549L16.5569 7.49492C16.7386 8.04102 16.6843 8.66112 16.3554 9.18732ZM16.5569 10.7449C16.7386 11.291 16.6843 11.9111 16.3554 12.4373C16.207 12.6747 16.0104 12.8783 15.7784 13.035L9.72854 17.1187C8.88334 17.6892 7.77634 17.6892 6.93114 17.1187L0.881256 13.035C0.120266 12.5213 -0.174834 11.5757 0.102126 10.7454L6.94304 15.3049C7.73034 15.8298 8.74104 15.8626 9.55624 15.4033L9.71654 15.3049L16.5569 10.7449ZM9.71654 0.41988L16.0817 4.66333C16.5413 4.96968 16.6654 5.59055 16.3591 6.05008C16.2858 6.15993 16.1916 6.25419 16.0817 6.32743L9.71654 10.5709C8.87684 11.1307 7.78284 11.1307 6.94304 10.5709L0.577906 6.32743C0.118376 6.02107 -0.00579417 5.40021 0.300556 4.94068C0.373796 4.83082 0.468056 4.73656 0.577906 4.66333L6.94304 0.41988C7.78284 -0.13996 8.87684 -0.13996 9.71654 0.41988ZM7.89064 1.6016L7.77514 1.66795L2.03484 5.49538L7.77514 9.32282C8.07374 9.52182 8.45264 9.54392 8.76904 9.38912L8.88454 9.32282L14.6238 5.49538L8.88454 1.66795C8.58594 1.4689 8.20704 1.44678 7.89064 1.6016Z" fill="white"/>
</svg>
