<svg width="21" height="21" viewBox="0 0 21 21" fill="none" xmlns="http://www.w3.org/2000/svg">
<path d="M9.9994 11.9999C11.1036 11.9999 11.9988 11.1046 11.9988 10.0003C11.9988 8.8959 11.1036 8.0006 9.9994 8.0006C8.8951 8.0006 7.99992 8.8959 7.99992 10.0003C7.99992 11.1046 8.8951 11.9999 9.9994 11.9999ZM4.001 10.0003C4.001 6.68717 6.68656 4.00137 9.9994 4.00137C13.3122 4.00137 15.9978 6.68717 15.9978 10.0003C15.9978 10.1238 15.994 10.2465 15.9867 10.3682L13.3276 13.0275C14.0548 12.2283 14.4982 11.166 14.4982 10.0003C14.4982 7.51544 12.484 5.50109 9.9994 5.50109C7.51477 5.50109 5.50059 7.51544 5.50059 10.0003C5.50059 12.4851 7.51477 14.4994 9.9994 14.4994C11.165 14.4994 12.2272 14.0561 13.0263 13.3287L10.4913 15.864C10.451 15.9043 10.4116 15.9456 10.3732 15.9877C10.2496 15.9953 10.1249 15.9992 9.9994 15.9992C6.68656 15.9992 4.001 13.3134 4.001 10.0003ZM9.9994 1.49972C14.3594 1.49972 17.9526 4.78272 18.4423 9.0117C18.9593 8.9689 19.4844 9.0481 19.971 9.2492C19.587 4.07702 15.2693 0 9.9994 0C4.47688 0 0 4.47727 0 10.0003C0 15.1862 3.9471 19.4501 9.0007 19.9513C8.9981 19.7736 9.0185 19.5909 9.0647 19.4061L9.2981 18.4723C4.93187 18.1157 1.4996 14.4588 1.4996 10.0003C1.4996 5.30554 5.30509 1.49972 9.9994 1.49972ZM17.0991 10.6696L11.1983 16.5709C10.8543 16.915 10.6102 17.3461 10.4922 17.8182L10.0346 19.6486C9.8357 20.4445 10.5566 21.1656 11.3525 20.9666L13.1827 20.509C13.6548 20.391 14.0858 20.1469 14.4299 19.8028L20.3307 13.9014C21.2231 13.009 21.2231 11.5621 20.3307 10.6696C19.4383 9.7772 17.9915 9.7772 17.0991 10.6696Z" fill="white"/>
</svg>
