<svg width="22" height="20" viewBox="0 0 22 20" fill="none" xmlns="http://www.w3.org/2000/svg">
<path d="M8.9375 19.25C8.55781 19.25 8.25 18.9421 8.25 18.5625C8.25 18.1829 8.55781 17.875 8.9375 17.875H17.875C19.3938 17.875 20.625 16.6438 20.625 15.125V4.125C20.625 2.60622 19.3938 1.375 17.875 1.375H8.9375C8.55781 1.375 8.25 1.06719 8.25 0.6875C8.25 0.307807 8.55781 0 8.9375 0H17.875C20.1532 0 22 1.84683 22 4.125V15.125C22 17.4032 20.1532 19.25 17.875 19.25H8.9375ZM9.13887 4.32637C9.40735 4.05787 9.84265 4.05787 10.1111 4.32637L14.9237 9.13887C15.1921 9.40735 15.1921 9.84266 14.9237 10.1112L10.1111 14.9237C9.84265 15.1921 9.40735 15.1921 9.13887 14.9237C8.87037 14.6552 8.87037 14.2198 9.13887 13.9513L12.7777 10.3125H0.6875C0.307807 10.3125 0 10.0046 0 9.625C0 9.24531 0.307807 8.9375 0.6875 8.9375H12.7777L9.13887 5.29863C8.87037 5.03015 8.87037 4.59485 9.13887 4.32637Z" fill="white"/>
</svg>
