<svg width="20" height="20" viewBox="0 0 20 20" fill="none" xmlns="http://www.w3.org/2000/svg">
<path d="M18.25 0C19.2165 0 20 0.78351 20 1.75V4.79271C20 5.81687 19.4309 6.75618 18.5231 7.2303L12.2413 10.5107C13.8773 11.3324 15 13.0258 15 14.9814C15 17.7428 12.7614 19.9814 10 19.9814C7.23858 19.9814 5 17.7428 5 14.9814C5 13.0258 6.12271 11.3324 7.75875 10.5107L1.47693 7.2303C0.56913 6.75618 0 5.81687 0 4.79271V1.75C0 0.78351 0.7835 0 1.75 0H18.25ZM10 11.4814C8.067 11.4814 6.5 13.0484 6.5 14.9814C6.5 16.9144 8.067 18.4814 10 18.4814C11.933 18.4814 13.5 16.9144 13.5 14.9814C13.5 13.0484 11.933 11.4814 10 11.4814ZM13.5 1.499H6.5V8.16098L9.8843 9.92888C9.9568 9.96678 10.0432 9.96678 10.1157 9.92888L13.5 8.15998V1.499ZM5 1.499L1.75 1.5C1.61193 1.5 1.5 1.61193 1.5 1.75V4.79271C1.5 5.25824 1.75869 5.6852 2.17133 5.90071L5 7.377V1.499ZM18.25 1.5L15 1.499V7.377L17.8287 5.90071C18.2413 5.6852 18.5 5.25824 18.5 4.79271V1.75C18.5 1.61193 18.3881 1.5 18.25 1.5Z" fill="white"/>
</svg>
