<svg width="48" height="48" viewBox="0 0 48 48" fill="none" xmlns="http://www.w3.org/2000/svg">
<rect width="48" height="48" rx="5" fill="#F3148A" fill-opacity="0.05"/>
<path d="M35.5131 11.9671C35.054 11.7116 34.549 11.5491 34.027 11.4889C33.505 11.4288 32.9762 11.4721 32.471 11.6164C31.9658 11.7607 31.4939 12.0033 31.0825 12.3301C30.671 12.6569 30.3281 13.0616 30.0731 13.5211L22.6471 26.8851L18.3971 22.6351C18.0282 22.253 17.5868 21.9483 17.0988 21.7387C16.6107 21.529 16.0859 21.4187 15.5548 21.4141C15.0236 21.4095 14.4969 21.5107 14.0053 21.7118C13.5137 21.9129 13.0671 22.2099 12.6916 22.5855C12.316 22.9611 12.019 23.4077 11.8179 23.8993C11.6167 24.3909 11.5155 24.9176 11.5201 25.4487C11.5248 25.9798 11.6351 26.5047 11.8447 26.9927C12.0544 27.4807 12.3591 27.9221 12.7411 28.2911L20.7411 36.2911C21.4971 37.0491 22.5171 37.4651 23.5691 37.4651L24.1231 37.4251C24.7362 37.3393 25.3211 37.1124 25.8316 36.7622C26.3421 36.4121 26.7644 35.9482 27.0651 35.4071L37.0651 17.4071C37.3204 16.948 37.4828 16.4431 37.543 15.9212C37.6032 15.3994 37.56 14.8708 37.4159 14.3656C37.2717 13.8605 37.0295 13.3887 36.7031 12.9771C36.3766 12.5656 35.9723 12.2224 35.5131 11.9671Z" fill="#E6007A" fill-opacity="0.09"/>
</svg>
